<svg width="53" height="59" viewBox="0 0 53 59" fill="none" xmlns="http://www.w3.org/2000/svg">
<path opacity="0.5" d="M26.3218 0.547198L45.2555 33.3215C45.3377 33.4741 45.2322 33.65 45.0679 33.65L35.7992 33.6474L26.3147 17.2192C26.2325 17.0666 26.0213 17.0666 25.9392 17.2191L16.4639 33.642L7.24212 33.6394C7.07786 33.6394 6.97222 33.4634 7.0543 33.3109L25.9463 0.547095C26.0402 0.40633 26.2513 0.406388 26.3218 0.547198Z" fill="#F37952"/>
<path opacity="0.5" d="M36.1361 35.6703L41.0427 44.1426C41.1248 44.2952 41.0193 44.4711 40.855 44.4711L12.0985 44.4748C11.9343 44.4747 11.8286 44.2987 11.9107 44.1462L16.8008 35.6649L36.1361 35.6703Z" fill="#F37952"/>
<path d="M26.3188 19.0431L35.1339 34.3119L17.1633 34.3069L25.9698 19.043C26.0461 18.9013 26.2424 18.9013 26.3188 19.0431Z" fill="#F37952"/>
</svg>
